. 
 
http://www.torrenting.com          :     Once & For all ;)


               www . Torrenting . Com 

(((((((((((((= Enjoy No RAR releases =))))))))))))))))))))


...................................NFO:....................................

.
ooooooooooooo ooooooooo.    o8o  ooooo      ooo  o8o  ooooooooooooo oooooo   oooo 
8'   888   `8 `888   `Y88.  `"'  `888b.     `8'  `"'  8'   888   `8  `888.   .8'  
     888       888   .d88' oooo   8 `88b.    8  oooo       888        `888. .8'   
     888       888ooo88P'  `888   8   `88b.  8  `888       888         `888.8'    
     888       888`88b.     888   8     `88b.8   888       888          `888'     
     888       888  `88b.   888   8       `888   888       888           888      
    o888o     o888o  o888o o888o o8o        `8  o888o     o888o         o888o  
                                     ___________                    ______
                              ______ ___  /__  /____  _____________ __  /
                              _  __ `/_  /__  /__  / / /  ___/  __ `/  __/
                              / /_/ /_  / _  / _  /_/ // /__ / /_/ // /
                              \__,_/ /_/  /_/  _\__, / \___/ \__,_/ \__/ 
                                               /____/








EnCoDer:Allycat



[img]http://lookpic.com/O/i2/911/Ca6kXb9c.jpeg[/img]

EnCoDer:Allycat



General
Complete name                    : Johny English Reborn DVDRip XVID AC3-TRiNiTY.avi
Format                           : AVI
Format/Info                      : Audio Video Interleave
File size                        : 1.40 GiB
Duration                         : 1h 37mn
Overall bit rate                 : 2 057 Kbps
Writing library                  : VirtualDub build 30091/release

Video
ID                               : 0
Format                           : MPEG-4 Visual
Format profile                   : Advanced Simple@L5
Format settings, BVOP            : 1
Format settings, QPel            : No
Format settings, GMC             : No warppoints
Format settings, Matrix          : Default (H.263)
Muxing mode                      : Packed bitstream
Codec ID                         : XVID
Codec ID/Hint                    : XviD
Duration                         : 1h 37mn
Bit rate                         : 1 600 Kbps
Width                            : 720 pixels
Height                           : 304 pixels
Display aspect ratio             : 2.35:1
Frame rate                       : 25.000 fps
Color space                      : YUV
Chroma subsampling               : 4:2:0
Bit depth                        : 8 bits
Scan type                        : Progressive
Compression mode                 : Lossy
Bits/(Pixel*Frame)               : 0.292
Stream size                      : 1.09 GiB (78%)
Writing library                  : XviD 1.2.1 (UTC 2008-12-04)

Audio
ID                               : 1
Format                           : AC-3
Format/Info                      : Audio Coding 3
Mode extension                   : CM (complete main)
Codec ID                         : 2000
Duration                         : 1h 37mn
Bit rate mode                    : Constant
Bit rate                         : 448 Kbps
Channel(s)                       : 2 channels
Channel positions                : Front: L R
Sampling rate                    : 48.0 KHz
Bit depth                        : 16 bits
Compression mode                 : Lossy
Stream size                      : 312 MiB (22%)
Alignment                        : Aligned on interleaves
Interleave, duration             : 40 ms (1.00 video frame)
Interleave, preload duration     : 512 ms

SOURCE:
Johhny English Reborn 2011 DVDRiP XViD-Lebo:THANKS.

PLOT:
Rowan Atkinson returns to the role of the accidental secret agent who doesn't know fear or danger in the comedy spy-thriller Johnny English Reborn. In his latest adventure, the most unlikely intelligence officer in Her Majesty's Secret Service must stop a group of international assassins before they eliminate a world leader and cause global chaos. In the years since MI-7's top spy vanished off the grid, he has been honing his unique skills in a remote region of Asia. But when his agency superiors learn of an attempt against the Chinese premier's life, they must hunt down the highly unorthodox agent. Now that the world needs him once again, Johnny English is back in action. With one shot at redemption, he must employ the latest in hi-tech gadgets to unravel a web of conspiracy that runs throughout the KGB, CIA and even MI-7. With mere days until a heads of state conference

SCREENS:
[img]http://lookpic.com/O/i2/926/etWNk55q.png[/img]
[img]http://lookpic.com/O/i2/1467/ytPopxgV.png[/img]
[img]http://lookpic.com/O/i2/364/5zitI8gd.png[/img]
[img]http://lookpic.com/O/i2/1333/K1Ov6Ms5.png[/img]
[img]http://lookpic.com/O/i2/1847/p8hqmI8D.png[/img]
[img]http://lookpic.com/O/i2/445/1f4ns7N.png[/img]
 
http://www.imdb.com/title/tt1634122/

SAMPLE:Yes.
A big shout out to
Friends,
w13,bobwhite,BigRed81,tinners,sa55,greyshadow,Reidy,NiNe,Bustheadz,Stoner,Selina,

GREETS:

IMAGiNE,FLAWL3SS,BHRG,RemixHD,PRESTIGE,BOW,TWiZTED,KiK,iGNiTiON,*THC*,INF1N1TY,BBnRG,SiC,CrEwSaDe,DTRG,UnKnOwN,26k,Purple Dragon 

and all other Groups past and present
[img]http://i.imgur.com/sKPbS.gif[/img]